<svg xmlns="http://www.w3.org/2000/svg" xmlns:xlink="http://www.w3.org/1999/xlink" width="919.47" height="762.969" viewBox="0 0 919.47 762.969">
  <metadata><?xpacket begin="﻿" id="W5M0MpCehiHzreSzNTczkc9d"?>
<x:xmpmeta xmlns:x="adobe:ns:meta/" x:xmptk="Adobe XMP Core 5.6-c138 79.159824, 2016/09/14-01:09:01        ">
   <rdf:RDF xmlns:rdf="http://www.w3.org/1999/02/22-rdf-syntax-ns#">
      <rdf:Description rdf:about=""/>
   </rdf:RDF>
</x:xmpmeta>

<?xpacket end="w"?></metadata>
<defs>

  <linearGradient id="skyGradient" x1="100%" y1="100%">
    <stop offset="0%" stop-color="lightblue" stop-opacity=".5">
      <animate attributeName="stop-color" values="#f35b2e;lightblue;blue;red;red;#ff2f96;red;red;purple;lightblue;#f35b2e" dur="20s" repeatCount="indefinite" />
    </stop>
    <stop offset="100%" stop-color="lightblue" stop-opacity=".5">
      <animate attributeName="stop-color" values="#ff2f96;lightblue;orange;purple;purple;#ff2f96;purple;purple;blue;lightblue;#ff2f96" dur="20s" repeatCount="indefinite" />
      <animate attributeName="offset" values=".95;.80;.60;.40;.20;0;.20;.40;.60;.80;.95" dur="14s" repeatCount="indefinite" />
    </stop>
  </linearGradient>
  </defs>
  <path fill="url(#skyGradient)" class="cls-1" d="M1311.52,108.407c106.74-50.455,207.47-50.611,291.69-12.736,84.44,37.567,152.36,113.165,198.49,207.114,44.27,94.884,44.23,196.8,8.07,279.242-36.66,83.673-97.67,146.755-180.8,191.777-44.03,22.669-90.32,38.2-149.15,47.731-58.06,9.394-128.68,12.79-203.5,7.944C1127.85,820.158,961.449,776.4,926.358,677.69c-19.887-49.013-7.4-105.2,17.321-161.74,25.13-56.624,62.5-113.6,101.741-166.115,39.64-52.593,81.15-100.717,123.89-141.529,43.14-40.9,87.51-74.479,142.21-99.9h0Z" transform="translate(-916.5 -68.719)"/>
</svg>
